# xmcd
#
# Track frame offsets:
#	150
#	14440
#	21333
#	31673
#	51633
#	63832
#	78660
#	93687
#	103874
#	122334
#	134523
#	147836
#
# Disc length: 2159 seconds
#
# Revision: 0
# Processed by: cddbd v1.5.2PL0 Copyright (c) Steve Scherf et al.
# Submitted via: dBpowerAMP V4.0
#
DISCID=a6086d0c
DTITLE=St Mikael - Jubliumsskiva 2007
DYEAR=1900
DGENRE=Chorus
TTITLE0=Clap your hands
TTITLE1=Vilken häftig chans
TTITLE2=Tack Jesus för att du finns
TTITLE3=Se på din Värld
TTITLE4=Lily In the valley
TTITLE5=Lean On me
TTITLE6=Total praise
TTITLE7=I promised the Lord
TTITLE8=Himmelrik
TTITLE9=Gabriellas sång
TTITLE10=Stad i ljus
TTITLE11=Må din väg
EXTD=
EXTT0=
EXTT1=
EXTT2=
EXTT3=
EXTT4=
EXTT5=
EXTT6=
EXTT7=
EXTT8=
EXTT9=
EXTT10=
EXTT11=
PLAYORDER=
